<?xml version="1.0" encoding="UTF-8" standalone="no"?>
<svg width="400px" height="400px" viewBox="0 0 400 400" version="1.1" xmlns="http://www.w3.org/2000/svg" xmlns:xlink="http://www.w3.org/1999/xlink" xmlns:sketch="http://www.bohemiancoding.com/sketch/ns">
    <!-- Generator: Sketch 3.1.1 (8761) - http://www.bohemiancoding.com/sketch -->
    <title>Roca Airways 2</title>
    <desc>Created with Sketch.</desc>
    <defs></defs>
    <g id="Page-1" stroke="none" stroke-width="1" fill="none" fill-rule="evenodd" sketch:type="MSPage">
        <g id="Group" sketch:type="MSLayerGroup" transform="translate(1.000000, 50.000000)" stroke="#EB6060" stroke-width="2" stroke-linecap="square">
            <path d="M0,350 C5.79876154e-15,274.818578 71.5392405,0 199,0 C326.460759,0 398,287.518142 398,350" id="Line" fill="#FFFFFF" sketch:type="MSShapeGroup"></path>
            <path d="M134.255044,137.065152 L111.534845,172.065152 L193.479707,167.235024 L211.534845,137.065152 L134.255044,137.065152 Z" id="Rectangle-1" fill="#EB6060" sketch:type="MSShapeGroup" transform="translate(161.534845, 154.565152) rotate(-30.000000) translate(-161.534845, -154.565152) "></path>
            <path d="M68.3252983,192.668645 L86.1750336,211.934848 L111.589268,211.934847 L148.674702,192.668645 L68.3252983,192.668645 Z" id="Rectangle-3" fill="#EB6060" sketch:type="MSShapeGroup" transform="translate(108.500000, 202.301746) rotate(-59.000000) translate(-108.500000, -202.301746) "></path>
            <path d="M211.255044,137.065152 L188.534845,172.065152 L270.479707,167.235024 L288.534845,137.065152 L211.255044,137.065152 Z" id="Rectangle-2" fill="#EB6060" sketch:type="MSShapeGroup" transform="translate(238.534845, 154.565152) scale(-1, 1) rotate(-30.000000) translate(-238.534845, -154.565152) "></path>
            <path d="M251.325298,192.668645 L269.175034,211.934848 L294.589268,211.934847 L331.674702,192.668645 L251.325298,192.668645 Z" id="Rectangle-4" fill="#EB6060" sketch:type="MSShapeGroup" transform="translate(291.500000, 202.301746) scale(-1, 1) rotate(-59.000000) translate(-291.500000, -202.301746) "></path>
        </g>
    </g>
</svg>