<?xml version="1.0" encoding="UTF-8" standalone="no"?>
<svg width="489px" height="101px" viewBox="0 0 489 101" version="1.1" xmlns="http://www.w3.org/2000/svg" xmlns:xlink="http://www.w3.org/1999/xlink" xmlns:sketch="http://www.bohemiancoding.com/sketch/ns">
    <!-- Generator: Sketch 3.1.1 (8761) - http://www.bohemiancoding.com/sketch -->
    <title>Roca Airways 2</title>
    <desc>Created with Sketch.</desc>
    <defs></defs>
    <g id="Page-1" stroke="none" stroke-width="1" fill="none" fill-rule="evenodd" sketch:type="MSPage">
        <path d="M314.583984,64.765625 L299.583984,64.765625 L291.175781,80 L287.748047,80 L311.830078,36.9921875 L313.792969,36.9921875 L319.681641,80 L316.605469,80 L314.583984,64.765625 Z M314.232422,62.0703125 L313.089844,53.5449219 C312.484372,48.8183357 312.103516,44.8925938 311.947266,41.7675781 C311.361325,42.998053 310.731449,44.2675716 310.057617,45.5761719 C309.383786,46.8847722 306.390652,52.3827641 301.078125,62.0703125 L314.232422,62.0703125 Z M327.123047,80 L324.251953,80 L331.019531,48.1542969 L333.832031,48.1542969 L327.123047,80 Z M332.279297,39.9804688 C332.279297,38.9062446 332.494138,38.0468782 332.923828,37.4023438 C333.353518,36.7578093 333.939449,36.4355469 334.681641,36.4355469 C335.794927,36.4355469 336.351562,37.1386648 336.351562,38.5449219 C336.351562,39.6582087 336.136721,40.5371062 335.707031,41.1816406 C335.277342,41.8261751 334.720707,42.1484375 334.037109,42.1484375 C333.4707,42.1484375 333.036134,41.9580097 332.733398,41.5771484 C332.430663,41.1962872 332.279297,40.6640659 332.279297,39.9804688 L332.279297,39.9804688 Z M356.830078,47.5976562 C358.177741,47.5976562 359.378901,47.7343736 360.433594,48.0078125 L359.818359,50.7324219 C358.900386,50.4394517 357.796881,50.2929688 356.507812,50.2929688 C354.671866,50.2929688 352.923836,50.9179625 351.263672,52.1679688 C349.603507,53.417975 348.109382,55.2929563 346.78125,57.7929688 C345.453118,60.2929812 344.476566,62.9980323 343.851562,65.9082031 L340.921875,80 L338.050781,80 L344.818359,48.1542969 L347.162109,48.1542969 L346.3125,54.1308594 L346.488281,54.1308594 C347.91407,52.2949127 349.115229,50.9716837 350.091797,50.1611328 C351.068364,49.3505819 352.108393,48.7207054 353.211914,48.2714844 C354.315435,47.8222634 355.521478,47.5976562 356.830078,47.5976562 L356.830078,47.5976562 Z M382.523438,80 L380.765625,59.9023438 C380.492186,55.5273219 380.355469,52.9296916 380.355469,52.109375 L380.179688,52.109375 C379.515622,53.906259 378.109386,56.7382619 375.960938,60.6054688 L365.53125,80 L362.103516,80 L361.517578,48.1542969 L364.212891,48.1542969 L364.59375,72.2070312 L364.505859,76.8066406 L364.681641,76.8066406 C365.873053,74.18944 367.337882,71.2890784 369.076172,68.1054688 L380.003906,48.1542969 L382.259766,48.1542969 L384.134766,68.1054688 C384.408204,70.9765769 384.544922,73.8769385 384.544922,76.8066406 L384.720703,76.8066406 L385.423828,75.0195312 L388.382812,68.1054688 L397.757812,48.1542969 L400.570312,48.1542969 L385.6875,80 L382.523438,80 Z M417.972656,47.65625 C422.503929,47.65625 425.228511,49.7949005 426.146484,54.0722656 L426.322266,54.0722656 L428.050781,48.1542969 L430.394531,48.1542969 L423.685547,80 L421.283203,80 L422.601562,71.9726562 L422.425781,71.9726562 C420.785148,74.7461076 418.958994,76.8749926 416.947266,78.359375 C414.935537,79.8437574 412.621107,80.5859375 410.003906,80.5859375 C404.515598,80.5859375 401.771484,76.9336303 401.771484,69.6289062 C401.771484,65.7812308 402.503899,62.1093925 403.96875,58.6132812 C405.433601,55.11717 407.391589,52.4170017 409.842773,50.5126953 C412.293958,48.6083889 415.003891,47.65625 417.972656,47.65625 L417.972656,47.65625 Z M410.677734,77.9492188 C412.416024,77.9492188 414.149405,77.3437561 415.87793,76.1328125 C417.606454,74.9218689 419.159173,73.3007914 420.536133,71.2695312 C421.913093,69.2382711 422.962887,66.9921998 423.685547,64.53125 C424.408207,62.0703002 424.769531,59.9902429 424.769531,58.2910156 C424.769531,56.7480392 424.515628,55.366217 424.007812,54.1455078 C423.499997,52.9247986 422.748052,51.9580114 421.751953,51.2451172 C420.755854,50.532223 419.515632,50.1757812 418.03125,50.1757812 C415.609363,50.1757812 413.421885,50.9765545 411.46875,52.578125 C409.515615,54.1796955 407.914069,56.5771325 406.664062,59.7705078 C405.414056,62.9638832 404.789062,66.1425623 404.789062,69.3066406 C404.789062,72.2754055 405.277339,74.4580008 406.253906,75.8544922 C407.230474,77.2509835 408.705068,77.9492188 410.677734,77.9492188 L410.677734,77.9492188 Z M435.580078,48.1542969 L438.509766,48.1542969 L440.912109,64.2089844 C441.908208,71.0644874 442.445312,75.4492092 442.523438,77.3632812 L442.845703,77.3632812 C443.685551,75.3124897 445.501939,71.7285412 448.294922,66.6113281 L458.490234,48.1542969 L461.507812,48.1542969 L440.619141,85.9472656 C439.212884,88.4277468 438.016606,90.1660106 437.030273,91.1621094 C436.04394,92.1582081 434.93067,92.9492158 433.69043,93.5351562 C432.450189,94.1210967 431.019539,94.4140625 429.398438,94.4140625 C428.070306,94.4140625 426.810553,94.2089864 425.619141,93.7988281 L425.619141,91.1035156 C427.005866,91.630862 428.343744,91.8945312 429.632812,91.8945312 C431.19532,91.8945312 432.630853,91.4111376 433.939453,90.4443359 C435.248053,89.4775342 436.517572,87.871105 437.748047,85.625 C438.978522,83.378895 439.955075,81.582038 440.677734,80.234375 L435.580078,48.1542969 Z M479.818359,71.3574219 C479.818359,74.1699359 478.81251,76.4111245 476.800781,78.0810547 C474.789052,79.7509849 472.054705,80.5859375 468.597656,80.5859375 C465.218733,80.5859375 462.240247,79.8535229 459.662109,78.3886719 L459.662109,75.2539062 C461.107429,76.1523482 462.601555,76.8457007 464.144531,77.3339844 C465.687508,77.8222681 467.132806,78.0664062 468.480469,78.0664062 C471.175795,78.0664062 473.236321,77.5048884 474.662109,76.3818359 C476.087898,75.2587834 476.800781,73.6621197 476.800781,71.5917969 C476.800781,70.7714803 476.649416,70.0488313 476.34668,69.4238281 C476.043944,68.798825 475.555667,68.1982451 474.881836,67.6220703 C474.208004,67.0458956 472.914072,66.210943 471,65.1171875 C468.109361,63.5546797 466.156255,62.1337955 465.140625,60.8544922 C464.124995,59.5751889 463.617188,58.0175873 463.617188,56.1816406 C463.617188,53.6816281 464.579092,51.6357501 466.50293,50.0439453 C468.426767,48.4521405 470.960922,47.65625 474.105469,47.65625 C475.57032,47.65625 477.118156,47.8271467 478.749023,48.1689453 C480.379891,48.5107439 481.751948,48.9648409 482.865234,49.53125 L481.839844,52.109375 C479.18358,50.8593687 476.605481,50.234375 474.105469,50.234375 C471.839832,50.234375 470.023444,50.7519479 468.65625,51.7871094 C467.289056,52.8222708 466.605469,54.1699136 466.605469,55.8300781 C466.605469,56.9043022 466.771483,57.7636687 467.103516,58.4082031 C467.435549,59.0527376 468.026363,59.7216762 468.875977,60.4150391 C469.72559,61.1084019 470.892571,61.8554647 472.376953,62.65625 C474.603527,63.8867249 476.180659,64.897457 477.108398,65.6884766 C478.036137,66.4794961 478.719724,67.3242143 479.15918,68.2226562 C479.598635,69.1210982 479.818359,70.1660097 479.818359,71.3574219 L479.818359,71.3574219 Z" id="Airways" fill="#555555" sketch:type="MSShapeGroup"></path>
        <path d="M20.6,52.35 L20.6,80 L5.6,80 L5.6,7.45 L28.4,7.45 C33.466692,7.45 37.799982,7.97499475 41.4,9.025 C45.000018,10.0750052 47.9499885,11.533324 50.25,13.4 C52.5500115,15.266676 54.233328,17.4916537 55.3,20.075 C56.366672,22.6583462 56.9,25.4999845 56.9,28.6 C56.9,31.000012 56.5583368,33.2749892 55.875,35.425 C55.1916633,37.5750107 54.2000065,39.5333245 52.9,41.3 C51.5999935,43.0666755 50.0000095,44.6333265 48.1,46 C46.1999905,47.3666735 44.016679,48.4666625 41.55,49.3 C42.5166715,49.833336 43.4249958,50.4749963 44.275,51.225 C45.1250043,51.9750037 45.88333,52.8666615 46.55,53.9 L63.45,80 L49.9,80 C47.366654,80 45.533339,79.033343 44.4,77.1 L30.6,54.85 C30.0333305,53.983329 29.4083368,53.350002 28.725,52.95 C28.0416633,52.549998 27.03334,52.35 25.7,52.35 L20.6,52.35 Z M20.6,41.8 L28.3,41.8 C30.7333455,41.8 32.8333245,41.4916697 34.6,40.875 C36.3666755,40.2583303 37.816661,39.4083387 38.95,38.325 C40.083339,37.2416612 40.916664,35.966674 41.45,34.5 C41.983336,33.033326 42.25,31.433342 42.25,29.7 C42.25,26.2666495 41.1083448,23.6000095 38.825,21.7 C36.5416552,19.7999905 33.06669,18.85 28.4,18.85 L20.6,18.85 L20.6,41.8 Z M139.45,43.7 C139.45,49.0000265 138.558342,53.916644 136.775,58.45 C134.991658,62.983356 132.475016,66.8999835 129.225,70.2 C125.974984,73.5000165 122.066689,76.0916572 117.5,77.975 C112.933311,79.8583428 107.866694,80.8 102.3,80.8 C96.7333055,80.8 91.6666895,79.8583428 87.1,77.975 C82.5333105,76.0916572 78.616683,73.5000165 75.35,70.2 C72.083317,66.8999835 69.5583423,62.983356 67.775,58.45 C65.9916578,53.916644 65.1,49.0000265 65.1,43.7 C65.1,38.3999735 65.9916578,33.4916893 67.775,28.975 C69.5583423,24.4583107 72.083317,20.5500165 75.35,17.25 C78.616683,13.9499835 82.5333105,11.3583427 87.1,9.475 C91.6666895,7.59165725 96.7333055,6.65 102.3,6.65 C107.866694,6.65 112.933311,7.59165725 117.5,9.475 C122.066689,11.3583427 125.974984,13.9583167 129.225,17.275 C132.475016,20.5916833 134.991658,24.5083108 136.775,29.025 C138.558342,33.5416892 139.45,38.433307 139.45,43.7 L139.45,43.7 Z M124.1,43.7 C124.1,39.899981 123.600005,36.4916817 122.6,33.475 C121.599995,30.4583182 120.158343,27.8916772 118.275,25.775 C116.391657,23.6583227 114.108347,22.0416723 111.425,20.925 C108.741653,19.8083277 105.700017,19.25 102.3,19.25 C98.899983,19.25 95.8500135,19.8083277 93.15,20.925 C90.4499865,22.0416723 88.1583428,23.6583227 86.275,25.775 C84.3916573,27.8916772 82.950005,30.4583182 81.95,33.475 C80.949995,36.4916817 80.45,39.899981 80.45,43.7 C80.45,47.5333525 80.949995,50.9583182 81.95,53.975 C82.950005,56.9916817 84.3916573,59.5499895 86.275,61.65 C88.1583428,63.7500105 90.4499865,65.3583278 93.15,66.475 C95.8500135,67.5916722 98.899983,68.15 102.3,68.15 C105.700017,68.15 108.741653,67.5916722 111.425,66.475 C114.108347,65.3583278 116.391657,63.7500105 118.275,61.65 C120.158343,59.5499895 121.599995,56.9916817 122.6,53.975 C123.600005,50.9583182 124.1,47.5333525 124.1,43.7 L124.1,43.7 Z M199.85,62.15 C200.683337,62.15 201.38333,62.449997 201.95,63.05 L207.9,69.4 C204.966652,73.133352 201.325022,75.966657 196.975,77.9 C192.624978,79.833343 187.45003,80.8 181.45,80.8 C176.01664,80.8 171.133355,79.8750093 166.8,78.025 C162.466645,76.1749908 158.783349,73.6000165 155.75,70.3 C152.716652,66.9999835 150.383342,63.083356 148.75,58.55 C147.116659,54.016644 146.3,49.0666935 146.3,43.7 C146.3,40.099982 146.691663,36.6750162 147.475,33.425 C148.258337,30.1749837 149.399993,27.183347 150.9,24.45 C152.400008,21.716653 154.208323,19.250011 156.325,17.05 C158.441677,14.849989 160.83332,12.9750078 163.5,11.425 C166.16668,9.87499225 169.074984,8.69167075 172.225,7.875 C175.375016,7.05832925 178.733316,6.65 182.3,6.65 C184.96668,6.65 187.491655,6.883331 189.875,7.35 C192.258345,7.816669 194.483323,8.4666625 196.55,9.3 C198.616677,10.1333375 200.524991,11.1416607 202.275,12.325 C204.025009,13.5083392 205.599993,14.799993 207,16.2 L201.95,23.1 C201.649999,23.5333355 201.266669,23.916665 200.8,24.25 C200.333331,24.583335 199.700004,24.75 198.9,24.75 C198.099996,24.75 197.291671,24.4666695 196.475,23.9 C195.658329,23.3333305 194.658339,22.7000035 193.475,22 C192.291661,21.2999965 190.808342,20.6666695 189.025,20.1 C187.241658,19.5333305 184.983347,19.25 182.25,19.25 C179.216652,19.25 176.433346,19.7999945 173.9,20.9 C171.366654,22.0000055 169.191676,23.5916562 167.375,25.675 C165.558324,27.7583437 164.150005,30.3166515 163.15,33.35 C162.149995,36.3833485 161.65,39.833314 161.65,43.7 C161.65,47.6000195 162.191661,51.0749847 163.275,54.125 C164.358339,57.1750153 165.841657,59.7499895 167.725,61.85 C169.608343,63.9500105 171.808321,65.5416613 174.325,66.625 C176.841679,67.7083387 179.533319,68.25 182.4,68.25 C184.100009,68.25 185.64166,68.1666675 187.025,68 C188.40834,67.8333325 189.691661,67.550002 190.875,67.15 C192.058339,66.749998 193.174995,66.2333365 194.225,65.6 C195.275005,64.9666635 196.333328,64.1666715 197.4,63.2 C197.766669,62.8999985 198.149998,62.650001 198.55,62.45 C198.950002,62.249999 199.383331,62.15 199.85,62.15 L199.85,62.15 Z M279.85,80 L268.2,80 C266.899994,80 265.841671,79.6916698 265.025,79.075 C264.208329,78.4583303 263.600002,77.6666715 263.2,76.7 L258.3,62.85 L229.4,62.85 L224.5,76.7 C224.166665,77.5333375 223.583337,78.2916632 222.75,78.975 C221.916663,79.6583367 220.866673,80 219.6,80 L207.85,80 L236.2,7.45 L251.55,7.45 L279.85,80 Z M233.05,52.45 L254.65,52.45 L246.8,30.25 C246.333331,29.0833275 245.841669,27.7166745 245.325,26.15 C244.808331,24.5833255 244.300003,22.900009 243.8,21.1 C243.333331,22.9333425 242.850003,24.6416587 242.35,26.225 C241.849998,27.8083413 241.366669,29.1833275 240.9,30.35 L233.05,52.45 Z" id="ROCA" fill="#EB6060" sketch:type="MSShapeGroup"></path>
    </g>
</svg>